<svg width="79" height="12" viewBox="0 0 79 12" fill="none" xmlns="http://www.w3.org/2000/svg">
<path d="M2.0633 3.984H6.1073V5.496H2.0633V3.984ZM2.2073 7.44H6.7793V9H0.275297V0.599999H6.6233V2.16H2.2073V7.44ZM12.1189 9V7.74L11.9989 7.464V5.208C11.9989 4.808 11.8749 4.496 11.6269 4.272C11.3869 4.048 11.0149 3.936 10.5109 3.936C10.1669 3.936 9.82692 3.992 9.49092 4.104C9.16292 4.208 8.88292 4.352 8.65092 4.536L7.97892 3.228C8.33092 2.98 8.75492 2.788 9.25092 2.652C9.74692 2.516 10.2509 2.448 10.7629 2.448C11.7469 2.448 12.5109 2.68 13.0549 3.144C13.5989 3.608 13.8709 4.332 13.8709 5.316V9H12.1189ZM10.1509 9.096C9.64692 9.096 9.21492 9.012 8.85492 8.844C8.49492 8.668 8.21892 8.432 8.02692 8.136C7.83492 7.84 7.73892 7.508 7.73892 7.14C7.73892 6.756 7.83092 6.42 8.01492 6.132C8.20692 5.844 8.50692 5.62 8.91492 5.46C9.32292 5.292 9.85492 5.208 10.5109 5.208H12.2269V6.3H10.7149C10.2749 6.3 9.97092 6.372 9.80292 6.516C9.64292 6.66 9.56292 6.84 9.56292 7.056C9.56292 7.296 9.65492 7.488 9.83892 7.632C10.0309 7.768 10.2909 7.836 10.6189 7.836C10.9309 7.836 11.2109 7.764 11.4589 7.62C11.7069 7.468 11.8869 7.248 11.9989 6.96L12.2869 7.824C12.1509 8.24 11.9029 8.556 11.5429 8.772C11.1829 8.988 10.7189 9.096 10.1509 9.096ZM17.7372 9.096C17.1852 9.096 16.6532 9.032 16.1412 8.904C15.6372 8.768 15.2372 8.6 14.9412 8.4L15.5652 7.056C15.8612 7.24 16.2092 7.392 16.6092 7.512C17.0172 7.624 17.4172 7.68 17.8092 7.68C18.2412 7.68 18.5452 7.628 18.7212 7.524C18.9052 7.42 18.9972 7.276 18.9972 7.092C18.9972 6.94 18.9252 6.828 18.7812 6.756C18.6452 6.676 18.4612 6.616 18.2292 6.576C17.9972 6.536 17.7412 6.496 17.4612 6.456C17.1892 6.416 16.9132 6.364 16.6332 6.3C16.3532 6.228 16.0972 6.124 15.8652 5.988C15.6332 5.852 15.4452 5.668 15.3012 5.436C15.1652 5.204 15.0972 4.904 15.0972 4.536C15.0972 4.128 15.2132 3.768 15.4452 3.456C15.6852 3.144 16.0292 2.9 16.4772 2.724C16.9252 2.54 17.4612 2.448 18.0852 2.448C18.5252 2.448 18.9732 2.496 19.4292 2.592C19.8852 2.688 20.2652 2.828 20.5692 3.012L19.9452 4.344C19.6332 4.16 19.3172 4.036 18.9972 3.972C18.6852 3.9 18.3812 3.864 18.0852 3.864C17.6692 3.864 17.3652 3.92 17.1732 4.032C16.9812 4.144 16.8852 4.288 16.8852 4.464C16.8852 4.624 16.9532 4.744 17.0892 4.824C17.2332 4.904 17.4212 4.968 17.6532 5.016C17.8852 5.064 18.1372 5.108 18.4092 5.148C18.6892 5.18 18.9692 5.232 19.2492 5.304C19.5292 5.376 19.7812 5.48 20.0052 5.616C20.2372 5.744 20.4252 5.924 20.5692 6.156C20.7132 6.38 20.7852 6.676 20.7852 7.044C20.7852 7.444 20.6652 7.8 20.4252 8.112C20.1852 8.416 19.8372 8.656 19.3812 8.832C18.9332 9.008 18.3852 9.096 17.7372 9.096ZM22.639 11.424C22.303 11.424 21.971 11.372 21.643 11.268C21.315 11.164 21.047 11.02 20.839 10.836L21.523 9.504C21.667 9.632 21.831 9.732 22.015 9.804C22.207 9.876 22.395 9.912 22.579 9.912C22.843 9.912 23.051 9.848 23.203 9.72C23.363 9.6 23.507 9.396 23.635 9.108L23.971 8.316L24.115 8.112L26.431 2.544H28.231L25.315 9.396C25.107 9.916 24.867 10.324 24.595 10.62C24.331 10.916 24.035 11.124 23.707 11.244C23.387 11.364 23.031 11.424 22.639 11.424ZM23.743 9.252L20.863 2.544H22.795L25.027 7.944L23.743 9.252Z" fill="black"/>
<path d="M29.1269 9V0.599999H30.7349L34.3109 6.528H33.4589L36.9749 0.599999H38.5709L38.5949 9H36.7709L36.7589 3.396H37.0949L34.2869 8.112H33.4109L30.5429 3.396H30.9509V9H29.1269ZM44.4158 9V7.74L44.2958 7.464V5.208C44.2958 4.808 44.1718 4.496 43.9238 4.272C43.6838 4.048 43.3118 3.936 42.8078 3.936C42.4638 3.936 42.1238 3.992 41.7878 4.104C41.4598 4.208 41.1798 4.352 40.9478 4.536L40.2758 3.228C40.6278 2.98 41.0518 2.788 41.5478 2.652C42.0438 2.516 42.5478 2.448 43.0598 2.448C44.0438 2.448 44.8078 2.68 45.3518 3.144C45.8958 3.608 46.1678 4.332 46.1678 5.316V9H44.4158ZM42.4478 9.096C41.9438 9.096 41.5118 9.012 41.1518 8.844C40.7918 8.668 40.5158 8.432 40.3238 8.136C40.1318 7.84 40.0358 7.508 40.0358 7.14C40.0358 6.756 40.1278 6.42 40.3118 6.132C40.5038 5.844 40.8038 5.62 41.2118 5.46C41.6198 5.292 42.1518 5.208 42.8078 5.208H44.5238V6.3H43.0118C42.5718 6.3 42.2678 6.372 42.0998 6.516C41.9398 6.66 41.8598 6.84 41.8598 7.056C41.8598 7.296 41.9518 7.488 42.1358 7.632C42.3278 7.768 42.5878 7.836 42.9158 7.836C43.2278 7.836 43.5078 7.764 43.7558 7.62C44.0038 7.468 44.1838 7.248 44.2958 6.96L44.5838 7.824C44.4478 8.24 44.1998 8.556 43.8398 8.772C43.4798 8.988 43.0158 9.096 42.4478 9.096ZM51.786 2.448C52.298 2.448 52.754 2.552 53.154 2.76C53.562 2.96 53.882 3.272 54.114 3.696C54.346 4.112 54.462 4.648 54.462 5.304V9H52.59V5.592C52.59 5.072 52.474 4.688 52.242 4.44C52.018 4.192 51.698 4.068 51.282 4.068C50.986 4.068 50.718 4.132 50.478 4.26C50.246 4.38 50.062 4.568 49.926 4.824C49.798 5.08 49.734 5.408 49.734 5.808V9H47.862V2.544H49.65V4.332L49.314 3.792C49.546 3.36 49.878 3.028 50.31 2.796C50.742 2.564 51.234 2.448 51.786 2.448ZM60.1189 9V7.74L59.9989 7.464V5.208C59.9989 4.808 59.8749 4.496 59.6269 4.272C59.3869 4.048 59.0149 3.936 58.5109 3.936C58.1669 3.936 57.8269 3.992 57.4909 4.104C57.1629 4.208 56.8829 4.352 56.6509 4.536L55.9789 3.228C56.3309 2.98 56.7549 2.788 57.2509 2.652C57.7469 2.516 58.2509 2.448 58.7629 2.448C59.7469 2.448 60.5109 2.68 61.0549 3.144C61.5989 3.608 61.8709 4.332 61.8709 5.316V9H60.1189ZM58.1509 9.096C57.6469 9.096 57.2149 9.012 56.8549 8.844C56.4949 8.668 56.2189 8.432 56.0269 8.136C55.8349 7.84 55.7389 7.508 55.7389 7.14C55.7389 6.756 55.8309 6.42 56.0149 6.132C56.2069 5.844 56.5069 5.62 56.9149 5.46C57.3229 5.292 57.8549 5.208 58.5109 5.208H60.2269V6.3H58.7149C58.2749 6.3 57.9709 6.372 57.8029 6.516C57.6429 6.66 57.5629 6.84 57.5629 7.056C57.5629 7.296 57.6549 7.488 57.8389 7.632C58.0309 7.768 58.2909 7.836 58.6189 7.836C58.9309 7.836 59.2109 7.764 59.4589 7.62C59.7069 7.468 59.8869 7.248 59.9989 6.96L60.2869 7.824C60.1509 8.24 59.9029 8.556 59.5429 8.772C59.1829 8.988 58.7189 9.096 58.1509 9.096ZM66.648 11.424C66.04 11.424 65.452 11.348 64.884 11.196C64.324 11.052 63.856 10.832 63.48 10.536L64.224 9.192C64.496 9.416 64.84 9.592 65.256 9.72C65.68 9.856 66.096 9.924 66.504 9.924C67.168 9.924 67.648 9.776 67.944 9.48C68.248 9.184 68.4 8.744 68.4 8.16V7.188L68.52 5.568L68.496 3.936V2.544H70.272V7.92C70.272 9.12 69.96 10.004 69.336 10.572C68.712 11.14 67.816 11.424 66.648 11.424ZM66.36 8.688C65.76 8.688 65.216 8.56 64.728 8.304C64.248 8.04 63.86 7.676 63.564 7.212C63.276 6.74 63.132 6.192 63.132 5.568C63.132 4.936 63.276 4.388 63.564 3.924C63.86 3.452 64.248 3.088 64.728 2.832C65.216 2.576 65.76 2.448 66.36 2.448C66.904 2.448 67.384 2.56 67.8 2.784C68.216 3 68.54 3.34 68.772 3.804C69.004 4.26 69.12 4.848 69.12 5.568C69.12 6.28 69.004 6.868 68.772 7.332C68.54 7.788 68.216 8.128 67.8 8.352C67.384 8.576 66.904 8.688 66.36 8.688ZM66.732 7.152C67.06 7.152 67.352 7.088 67.608 6.96C67.864 6.824 68.064 6.636 68.208 6.396C68.352 6.156 68.424 5.88 68.424 5.568C68.424 5.248 68.352 4.972 68.208 4.74C68.064 4.5 67.864 4.316 67.608 4.188C67.352 4.052 67.06 3.984 66.732 3.984C66.404 3.984 66.112 4.052 65.856 4.188C65.6 4.316 65.396 4.5 65.244 4.74C65.1 4.972 65.028 5.248 65.028 5.568C65.028 5.88 65.1 6.156 65.244 6.396C65.396 6.636 65.6 6.824 65.856 6.96C66.112 7.088 66.404 7.152 66.732 7.152ZM75.2184 9.096C74.4824 9.096 73.8344 8.952 73.2744 8.664C72.7224 8.376 72.2944 7.984 71.9904 7.488C71.6864 6.984 71.5344 6.412 71.5344 5.772C71.5344 5.124 71.6824 4.552 71.9784 4.056C72.2824 3.552 72.6944 3.16 73.2144 2.88C73.7344 2.592 74.3224 2.448 74.9784 2.448C75.6104 2.448 76.1784 2.584 76.6824 2.856C77.1944 3.12 77.5984 3.504 77.8944 4.008C78.1904 4.504 78.3384 5.1 78.3384 5.796C78.3384 5.868 78.3344 5.952 78.3264 6.048C78.3184 6.136 78.3104 6.22 78.3024 6.3H73.0584V5.208H77.3184L76.5984 5.532C76.5984 5.196 76.5304 4.904 76.3944 4.656C76.2584 4.408 76.0704 4.216 75.8304 4.08C75.5904 3.936 75.3104 3.864 74.9904 3.864C74.6704 3.864 74.3864 3.936 74.1384 4.08C73.8984 4.216 73.7104 4.412 73.5744 4.668C73.4384 4.916 73.3704 5.212 73.3704 5.556V5.844C73.3704 6.196 73.4464 6.508 73.5984 6.78C73.7584 7.044 73.9784 7.248 74.2584 7.392C74.5464 7.528 74.8824 7.596 75.2664 7.596C75.6104 7.596 75.9104 7.544 76.1664 7.44C76.4304 7.336 76.6704 7.18 76.8864 6.972L77.8824 8.052C77.5864 8.388 77.2144 8.648 76.7664 8.832C76.3184 9.008 75.8024 9.096 75.2184 9.096Z" fill="#3A61F6"/>
</svg>
